<svg width="44" height="44" viewBox="0 0 44 44" fill="none" xmlns="http://www.w3.org/2000/svg">
<path d="M42.0701 17.4129C41.9422 17.1892 41.7001 17.0592 41.5014 16.895L41.1641 16.6164C38.8964 14.743 37.5833 11.9552 37.5833 9.01378V6.87501C37.5804 6.69923 37.527 6.528 37.4295 6.38173C37.332 6.23545 37.1945 6.12031 37.0333 6.05001L28.1492 2.01175C28.0234 1.95459 27.8869 1.92501 27.7487 1.92501C27.6447 1.92501 27.5414 1.94178 27.4427 1.97467L27.2859 2.02693C27.1238 2.08098 26.9693 2.15573 26.8263 2.24934L26.2178 2.64762C23.6617 4.32067 20.3521 4.29978 17.8174 2.5946L17.1777 2.16425C17.0321 2.06632 16.874 1.98855 16.7075 1.93307L16.5556 1.88244C16.4581 1.84992 16.3559 1.83334 16.2531 1.83334C16.1138 1.83334 15.9762 1.86375 15.8499 1.92243L6.96667 6.05001C6.80553 6.12031 6.66801 6.23545 6.57049 6.38173C6.47298 6.528 6.41958 6.69923 6.41667 6.87501V9.05395C6.41667 11.9699 5.11496 14.7337 2.86685 16.5908L2.53537 16.8646C2.31223 17.049 2.03405 17.1934 1.90461 17.4523C1.83928 17.583 1.81446 17.7302 1.83333 17.875V26.125C1.81446 26.2699 1.83928 26.4171 1.90461 26.5477C2.03405 26.8066 2.31223 26.9511 2.53537 27.1354L2.86685 27.4092C5.11496 29.2663 6.41667 32.0301 6.41667 34.9461V37.125C6.41958 37.3008 6.47298 37.472 6.57049 37.6183C6.66801 37.7646 6.80553 37.8797 6.96667 37.95L15.8508 41.9883C15.9766 42.0454 16.1131 42.075 16.2513 42.075C16.3553 42.075 16.4586 42.0582 16.5573 42.0253L16.7141 41.9731C16.8762 41.919 17.0307 41.8443 17.1737 41.7507L17.7822 41.3524C20.3383 39.6793 23.6479 39.7002 26.1826 41.4054L26.8223 41.8358C26.9679 41.9337 27.126 42.0115 27.2925 42.0669L27.4427 42.117C27.5414 42.1499 27.6447 42.1667 27.7487 42.1667C27.8869 42.1667 28.0234 42.1371 28.1492 42.0799L37.0333 38.0417C37.1945 37.9714 37.332 37.8562 37.4295 37.71C37.527 37.5637 37.5804 37.3925 37.5833 37.2167V34.9862C37.5833 32.0448 38.8964 29.257 41.1641 27.3836L41.5014 27.105C41.7001 26.9408 41.9422 26.8108 42.0701 26.5871C42.1345 26.4743 42.1678 26.3465 42.1667 26.2167V17.7833C42.1678 17.6535 42.1345 17.5257 42.0701 17.4129ZM37.125 23.375H37.5094C38.0565 23.375 38.5 23.8185 38.5 24.3656C38.5 24.6665 38.3632 24.9511 38.1282 25.1391L35.2917 27.4083L35.253 27.4374C35.052 27.5881 34.7831 27.6124 34.5583 27.5C34.3986 27.4082 34.2209 27.3518 34.0373 27.3348C33.8538 27.3178 33.6688 27.3405 33.4948 27.4013C33.3209 27.4622 33.1621 27.5599 33.0292 27.6876C32.8964 27.8154 32.7926 27.9702 32.725 28.1417C32.5605 28.4588 32.526 28.8276 32.6286 29.1698C32.7313 29.512 32.9631 29.8008 33.275 29.975C33.6643 30.1418 33.9167 30.5246 33.9167 30.9481V32.7714C33.9167 34.2536 33.0601 35.6023 31.7185 36.2325L30.7124 36.7051C28.946 37.5347 26.8744 37.3802 25.2507 36.2977L24.0167 35.475C23.614 35.1874 23.375 34.723 23.375 34.2281V24.75C23.375 23.9906 23.9906 23.375 24.75 23.375C25.1147 23.375 25.4644 23.2301 25.7223 22.9723C25.9801 22.7144 26.125 22.3647 26.125 22C26.125 21.6353 25.9801 21.2856 25.7223 21.0277C25.4644 20.7699 25.1147 20.625 24.75 20.625C23.9906 20.625 23.375 20.0094 23.375 19.25V9.68022C23.375 9.18537 23.614 8.72097 24.0167 8.43334L25.2507 7.61064C26.8744 6.52816 28.946 6.37365 30.7124 7.20329L31.7185 7.67586C33.0601 8.30601 33.9167 9.65471 33.9167 11.1369V12.9602C33.9167 13.3837 33.6643 13.7665 33.275 13.9333C32.9631 14.1076 32.7313 14.3964 32.6286 14.7386C32.526 15.0808 32.5605 15.4495 32.725 15.7667C32.8174 16.0083 32.9806 16.2163 33.1932 16.3635C33.2942 16.4334 33.4041 16.4881 33.5194 16.5263C33.7739 16.6108 34.0476 16.5543 34.3054 16.4806L34.5068 16.4231C34.5411 16.4133 34.5744 16.4003 34.6063 16.3844C34.8016 16.2867 35.0354 16.3078 35.2101 16.4388L35.2917 16.5L38.1389 18.8591C38.3676 19.0487 38.5 19.3303 38.5 19.6273C38.5 20.1783 38.0533 20.625 37.5023 20.625H37.125C36.7603 20.625 36.4106 20.7699 36.1527 21.0277C35.8949 21.2856 35.75 21.6353 35.75 22C35.75 22.3647 35.8949 22.7144 36.1527 22.9723C36.4106 23.2301 36.7603 23.375 37.125 23.375ZM19.25 23.375C20.0094 23.375 20.625 23.9906 20.625 24.75V34.3198C20.625 34.8147 20.386 35.279 19.9833 35.5667L18.7493 36.3894C17.1256 37.4719 15.054 37.6264 13.2876 36.7967L12.2815 36.3242C10.9399 35.694 10.0833 34.3453 10.0833 32.8631V31.0398C10.0833 30.6163 10.3357 30.2335 10.725 30.0667C11.0369 29.8924 11.2687 29.6036 11.3714 29.2614C11.474 28.9192 11.4395 28.5505 11.275 28.2333C11.2074 28.0619 11.1036 27.907 10.9708 27.7793C10.8379 27.6515 10.6791 27.5539 10.5052 27.493C10.3312 27.4321 10.1462 27.4094 9.96266 27.4265C9.77915 27.4435 9.60145 27.4998 9.44167 27.5917C9.21695 27.704 8.94804 27.6798 8.74704 27.529L8.70833 27.5L5.86114 25.1409C5.63239 24.9514 5.5 24.6697 5.5 24.3727C5.5 23.8217 5.94667 23.375 6.49767 23.375H6.875C7.23967 23.375 7.58941 23.2301 7.84727 22.9723C8.10513 22.7144 8.25 22.3647 8.25 22C8.25 21.6353 8.10513 21.2856 7.84727 21.0277C7.58941 20.7699 7.23967 20.625 6.875 20.625H6.49057C5.94349 20.625 5.5 20.1815 5.5 19.6344C5.5 19.3335 5.63679 19.0489 5.87177 18.8609L8.70833 16.5917L8.78991 16.5305C8.96463 16.3995 9.19839 16.3784 9.39373 16.476C9.42562 16.492 9.45892 16.5049 9.49319 16.5147L9.69459 16.5723C9.95244 16.6459 10.2261 16.7025 10.4806 16.618C10.5959 16.5797 10.7058 16.5251 10.8068 16.4552C11.0194 16.308 11.1826 16.0999 11.275 15.8583C11.4395 15.5412 11.474 15.1725 11.3714 14.8303C11.2687 14.4881 11.0369 14.1993 10.725 14.025C10.3357 13.8582 10.0833 13.4754 10.0833 13.0519V11.1819C10.0833 9.67223 10.9558 8.29856 12.3222 7.65674L13.2876 7.20329C15.054 6.37365 17.1256 6.52816 18.7493 7.61064L19.9833 8.43334C20.386 8.72097 20.625 9.18537 20.625 9.68022V19.25C20.625 20.0094 20.0094 20.625 19.25 20.625C18.8853 20.625 18.5356 20.7699 18.2777 21.0277C18.0199 21.2856 17.875 21.6353 17.875 22C17.875 22.3647 18.0199 22.7144 18.2777 22.9723C18.5356 23.2301 18.8853 23.375 19.25 23.375Z" fill="#8B5CF6"/>
<path d="M13.75 8.73108C13.0298 8.73108 12.3977 9.36313 12.3977 10.0834C12.3977 10.2838 12.4342 10.4812 12.5041 10.6663C12.6191 10.9709 12.8595 11.205 13.0942 11.4307L14.1872 12.4817C14.7864 13.0578 15.125 13.8531 15.125 14.6843C15.125 15.4947 14.8031 16.272 14.23 16.845L13.1436 17.9314C12.0645 19.0105 11.4583 20.474 11.4583 22C11.4583 23.5261 12.0645 24.9896 13.1436 26.0686L14.23 27.155C14.8031 27.7281 15.125 28.5053 15.125 29.3157C15.125 30.1469 14.7864 30.9423 14.1872 31.5184L13.0942 32.5694C12.8595 32.7951 12.6191 33.0292 12.5041 33.3338C12.4342 33.5189 12.3977 33.7162 12.3977 33.9167C12.3977 34.0962 12.427 34.2732 12.4833 34.4411C12.5999 34.7889 12.8639 35.0854 13.2086 35.2108C13.3818 35.2738 13.5659 35.3013 13.75 35.2917C13.9341 35.3013 14.1182 35.2738 14.2914 35.2108C14.4646 35.1478 14.6234 35.0506 14.7583 34.925L16.2315 33.4086C17.2854 32.3236 17.875 30.8706 17.875 29.358C17.875 27.8162 17.2625 26.3376 16.1723 25.2474L15.1158 24.1908C14.5348 23.6098 14.2083 22.8217 14.2083 22C14.2083 21.1783 14.5348 20.3903 15.1158 19.8092L16.1723 18.7527C17.2625 17.6625 17.875 16.1839 17.875 14.6421C17.875 13.1295 17.2854 11.6765 16.2315 10.5915L15.2243 9.55474C14.9141 9.23534 14.5928 8.89434 14.1616 8.78325C14.028 8.74882 13.8898 8.73108 13.75 8.73108Z" fill="#8B5CF6"/>
<path d="M28.875 14.6843C28.875 13.8531 29.2136 13.0578 29.8128 12.4817L30.9058 11.4307C31.1405 11.205 31.3809 10.9709 31.4959 10.6663C31.5658 10.4812 31.6023 10.2838 31.6023 10.0834C31.6023 9.36313 30.9702 8.73108 30.25 8.73108C30.1102 8.73108 29.972 8.74882 29.8384 8.78325C29.4072 8.89434 29.0859 9.23534 28.7757 9.55474L27.7685 10.5915C26.7146 11.6765 26.125 13.1295 26.125 14.6421C26.125 16.1839 26.7375 17.6625 27.8277 18.7527L28.8842 19.8092C29.4652 20.3903 29.7917 21.1783 29.7917 22C29.7917 22.8217 29.4652 23.6098 28.8842 24.1908L27.8277 25.2474C26.7375 26.3376 26.125 27.8162 26.125 29.358C26.125 30.8706 26.7146 32.3236 27.7685 33.4086L29.2417 34.925C29.5233 35.164 29.8806 35.2952 30.25 35.2952C30.2539 35.2952 30.2579 35.2952 30.2618 35.2952C30.983 35.2897 31.6023 34.6379 31.6023 33.9167C31.6023 33.7162 31.5658 33.5189 31.4959 33.3338C31.3809 33.0292 31.1405 32.7951 30.9058 32.5694L29.8128 31.5184C29.2136 30.9423 28.875 30.1469 28.875 29.3157C28.875 28.5053 29.1969 27.7281 29.77 27.155L30.8564 26.0686C31.9355 24.9896 32.5417 23.5261 32.5417 22C32.5417 20.474 31.9355 19.0105 30.8564 17.9314L29.77 16.845C29.1969 16.272 28.875 15.4947 28.875 14.6843Z" fill="#8B5CF6"/>
</svg>
