<?xml version="1.0" encoding="UTF-8"?>
<svg version="1.1" xmlns="http://www.w3.org/2000/svg" width="204" height="192">
<path d="M0 0 C67.32 0 134.64 0 204 0 C204 63.36 204 126.72 204 192 C136.68 192 69.36 192 0 192 C0 128.64 0 65.28 0 0 Z " fill="#FEFEFE" transform="translate(0,0)"/>
<path d="M0 0 C1.85106945 1.33835411 1.85106945 1.33835411 3.77690125 3.09457397 C4.47815817 3.73209972 5.17941509 4.36962547 5.90192223 5.02647018 C9.04891679 7.98665006 12.14074062 10.99321456 15.19458008 14.04931641 C15.86392578 14.7153035 16.53327148 15.38129059 17.22290039 16.06745911 C19.40773049 18.24288352 21.58885909 20.42197067 23.76953125 22.6015625 C25.29783525 24.12664916 26.82621272 25.6516622 28.35466003 27.17660522 C31.5444493 30.36043105 34.73218963 33.5462923 37.91870117 36.73339844 C42.0001904 40.8149897 46.08854104 44.88963336 50.17865467 48.96257973 C53.33133175 52.10414289 56.47945805 55.25023585 59.62631798 58.39762497 C61.13218532 59.9023134 62.63967189 61.40538316 64.14881325 62.90678787 C66.2547869 65.00296432 68.35433065 67.10538144 70.45239258 69.20947266 C71.07423935 69.82569992 71.69608612 70.44192719 72.33677673 71.076828 C79.77069013 78.56514608 79.77069013 78.56514608 80.21484375 83.28125 C79.591454 88.268368 78.80235797 91.41491963 75 95 C70.62063413 97.53110959 66.94339661 98.12326049 62 97 C59.80142212 95.42567444 59.80142212 95.42567444 57.52197266 93.27758789 C56.21090546 92.04687057 56.21090546 92.04687057 54.87335205 90.79129028 C53.91343123 89.86306488 52.95572455 88.93254542 52 88 C51.50427238 87.51717937 51.00854477 87.03435875 50.4977951 86.5369072 C46.55611428 82.68167518 42.66333062 78.77845137 38.7734375 74.87109375 C37.53241651 73.62820288 36.291171 72.38553616 35.04971313 71.14308167 C31.81553685 67.90512502 28.58437742 64.6641747 25.35388184 61.42254639 C22.04376212 58.10211509 18.73073608 54.7845863 15.41796875 51.46679688 C8.94249848 44.98066853 2.47021828 38.49136717 -4 32 C-8.16093717 33.63356382 -10.93254934 36.67252097 -14.00610352 39.79492188 C-14.59683655 40.38696915 -15.18756958 40.97901642 -15.79620361 41.58900452 C-17.74507732 43.54436198 -19.68688003 45.50659368 -21.62890625 47.46875 C-22.98312774 48.82924294 -24.33786637 50.18922131 -25.69309998 51.54870605 C-29.25868854 55.1275948 -32.81866826 58.71200685 -36.3770752 62.29803467 C-42.0751539 68.03923965 -47.77995644 73.77374398 -53.48801994 79.50502014 C-55.48184543 81.50907598 -57.47222663 83.51650663 -59.46229553 85.52429199 C-60.68251171 86.75133572 -61.9028376 87.97827036 -63.12329102 89.20507812 C-63.67661606 89.76514053 -64.2299411 90.32520294 -64.80003357 90.90223694 C-68.66971594 94.78338339 -71.21738483 97.291391 -76.8125 97.4375 C-80.43493922 97.36875298 -82.65194342 97.0354775 -85.5 94.75 C-88.80640712 91.11295217 -89.83222901 89.50993888 -90.375 84.625 C-89.62010116 77.32764452 -83.91007914 72.61271389 -78.93994141 67.64941406 C-78.23698441 66.93973984 -77.5340274 66.23006561 -76.80976868 65.49888611 C-74.49563493 63.16582788 -72.17409946 60.84031609 -69.8515625 58.515625 C-68.23482758 56.89246064 -66.61824246 55.26914706 -65.00180054 53.64569092 C-61.61771186 50.24964504 -58.22953253 46.85774073 -54.83886719 43.46826172 C-50.49534974 39.1249479 -46.16577461 34.76801728 -41.83959389 30.407444 C-38.50756295 27.05318228 -35.1664879 23.70804366 -31.82279587 20.36540985 C-30.22240111 18.76265544 -28.62524743 17.15665788 -27.03142166 15.54737091 C-24.80327744 13.29963624 -22.56282263 11.06492313 -20.31884766 8.83300781 C-19.66409958 8.16702072 -19.0093515 7.50103363 -18.33476257 6.81486511 C-12.97721924 1.53020043 -7.74815308 -1.20229962 0 0 Z " fill="#030303" transform="translate(107,37)"/>
</svg>
