<svg width="35" height="35" viewBox="0 0 35 35" fill="none" xmlns="http://www.w3.org/2000/svg">
<path d="M8.7499 15.3999C8.7499 14.82 8.2798 14.3499 7.6999 14.3499C7.12001 14.3499 6.6499 14.82 6.6499 15.3999H8.7499ZM16.0999 28.3499C16.6798 28.3499 17.1499 27.8798 17.1499 27.2999C17.1499 26.72 16.6798 26.2499 16.0999 26.2499V28.3499ZM6.6499 15.3999C6.6499 15.9798 7.12001 16.4499 7.6999 16.4499C8.2798 16.4499 8.7499 15.9798 8.7499 15.3999H6.6499ZM16.0999 8.7499C16.6798 8.7499 17.1499 8.2798 17.1499 7.6999C17.1499 7.12001 16.6798 6.6499 16.0999 6.6499V8.7499ZM7.6999 14.3499C7.12001 14.3499 6.6499 14.82 6.6499 15.3999C6.6499 15.9798 7.12001 16.4499 7.6999 16.4499V14.3499ZM16.0999 16.4499C16.6798 16.4499 17.1499 15.9798 17.1499 15.3999C17.1499 14.82 16.6798 14.3499 16.0999 14.3499V16.4499ZM15.0499 15.3999C15.0499 15.9798 15.52 16.4499 16.0999 16.4499C16.6798 16.4499 17.1499 15.9798 17.1499 15.3999H15.0499ZM17.1499 7.6999C17.1499 7.12001 16.6798 6.6499 16.0999 6.6499C15.52 6.6499 15.0499 7.12001 15.0499 7.6999H17.1499ZM17.1499 15.3999C17.1499 14.82 16.6798 14.3499 16.0999 14.3499C15.52 14.3499 15.0499 14.82 15.0499 15.3999H17.1499ZM15.0499 20.2999C15.0499 20.8798 15.52 21.3499 16.0999 21.3499C16.6798 21.3499 17.1499 20.8798 17.1499 20.2999H15.0499ZM16.0999 26.2499C15.52 26.2499 15.0499 26.72 15.0499 27.2999C15.0499 27.8798 15.52 28.3499 16.0999 28.3499V26.2499ZM28.3499 20.2999C28.3499 19.72 27.8798 19.2499 27.2999 19.2499C26.72 19.2499 26.2499 19.72 26.2499 20.2999H28.3499ZM15.0499 27.2999C15.0499 27.8798 15.52 28.3499 16.0999 28.3499C16.6798 28.3499 17.1499 27.8798 17.1499 27.2999H15.0499ZM17.1499 20.2999C17.1499 19.72 16.6798 19.2499 16.0999 19.2499C15.52 19.2499 15.0499 19.72 15.0499 20.2999H17.1499ZM16.0999 6.6499C15.52 6.6499 15.0499 7.12001 15.0499 7.6999C15.0499 8.2798 15.52 8.7499 16.0999 8.7499V6.6499ZM26.2499 20.2999C26.2499 20.8798 26.72 21.3499 27.2999 21.3499C27.8798 21.3499 28.3499 20.8798 28.3499 20.2999H26.2499ZM27.2999 21.3499C27.8798 21.3499 28.3499 20.8798 28.3499 20.2999C28.3499 19.72 27.8798 19.2499 27.2999 19.2499V21.3499ZM16.0999 19.2499C15.52 19.2499 15.0499 19.72 15.0499 20.2999C15.0499 20.8798 15.52 21.3499 16.0999 21.3499V19.2499ZM6.6499 15.3999V21.6999H8.7499V15.3999H6.6499ZM6.6499 21.6999C6.6499 25.3727 9.62721 28.3499 13.2999 28.3499V26.2499C10.787 26.2499 8.7499 24.2128 8.7499 21.6999H6.6499ZM13.2999 28.3499H16.0999V26.2499H13.2999V28.3499ZM8.7499 15.3999V13.2999H6.6499V15.3999H8.7499ZM8.7499 13.2999C8.7499 10.787 10.787 8.7499 13.2999 8.7499V6.6499C9.62721 6.6499 6.6499 9.62721 6.6499 13.2999H8.7499ZM13.2999 8.7499H16.0999V6.6499H13.2999V8.7499ZM7.6999 16.4499H16.0999V14.3499H7.6999V16.4499ZM17.1499 15.3999V7.6999H15.0499V15.3999H17.1499ZM15.0499 15.3999V20.2999H17.1499V15.3999H15.0499ZM16.0999 28.3499H21.6999V26.2499H16.0999V28.3499ZM21.6999 28.3499C25.3727 28.3499 28.3499 25.3727 28.3499 21.6999H26.2499C26.2499 24.2128 24.2128 26.2499 21.6999 26.2499V28.3499ZM28.3499 21.6999V20.2999H26.2499V21.6999H28.3499ZM17.1499 27.2999V20.2999H15.0499V27.2999H17.1499ZM16.0999 8.7499H21.6999V6.6499H16.0999V8.7499ZM21.6999 8.7499C24.2128 8.7499 26.2499 10.787 26.2499 13.2999H28.3499C28.3499 9.62721 25.3727 6.6499 21.6999 6.6499V8.7499ZM26.2499 13.2999V20.2999H28.3499V13.2999H26.2499ZM27.2999 19.2499H16.0999V21.3499H27.2999V19.2499Z" fill="#F3E8FF"/>
</svg>
