<svg width="30" height="30" viewBox="0 0 30 30" fill="none" xmlns="http://www.w3.org/2000/svg">
<path d="M15 27.5C17.4723 27.5 19.889 26.7669 21.9446 25.3934C24.0002 24.0199 25.6024 22.0676 26.5485 19.7836C27.4946 17.4995 27.7421 14.9861 27.2598 12.5614C26.7775 10.1366 25.587 7.90933 23.8388 6.16117C22.0907 4.41301 19.8634 3.2225 17.4386 2.74019C15.0139 2.25787 12.5005 2.50542 10.2165 3.45151C7.93238 4.39761 5.98015 5.99976 4.60663 8.05538C3.23311 10.111 2.5 12.5277 2.5 15C2.5 18.3152 3.81696 21.4946 6.16117 23.8388C7.3219 24.9996 8.69989 25.9203 10.2165 26.5485C11.733 27.1767 13.3585 27.5 15 27.5ZM15 25C14.6292 25 14.2666 24.89 13.9583 24.684C13.65 24.478 13.4096 24.1851 13.2677 23.8425C13.1258 23.4999 13.0887 23.1229 13.161 22.7592C13.2334 22.3955 13.412 22.0614 13.6742 21.7992C13.9364 21.537 14.2705 21.3584 14.6342 21.286C14.9979 21.2137 15.3749 21.2508 15.7175 21.3927C16.0601 21.5346 16.353 21.775 16.559 22.0833C16.765 22.3917 16.875 22.7542 16.875 23.125C16.875 23.6223 16.6775 24.0992 16.3258 24.4508C15.9742 24.8025 15.4973 25 15 25ZM10 11.2425C9.98157 10.2822 10.2467 9.33769 10.7623 8.52728C11.2779 7.71686 12.0211 7.07648 12.8988 6.68626C13.677 6.33866 14.5303 6.19264 15.3799 6.26168C16.2295 6.33071 17.048 6.61257 17.76 7.08126C18.4165 7.51591 18.9611 8.09947 19.3494 8.78441C19.7377 9.46935 19.9588 10.2363 19.9946 11.0229C20.0304 11.8094 19.88 12.5933 19.5555 13.3107C19.2311 14.0281 18.7418 14.6587 18.1275 15.1513C17.266 15.8151 16.6464 16.7435 16.3637 17.7938C16.2858 18.116 16.0831 18.3941 15.8002 18.5669C15.5172 18.7396 15.1772 18.7929 14.855 18.715C14.5328 18.6371 14.2547 18.4344 14.0819 18.1514C13.9091 17.8685 13.8558 17.5285 13.9338 17.2063C14.3406 15.6186 15.2641 14.2114 16.5588 13.2063C16.8665 12.9601 17.1116 12.6448 17.2743 12.2859C17.4369 11.927 17.5124 11.5347 17.4946 11.1411C17.4768 10.7475 17.3662 10.3636 17.1719 10.0208C16.9775 9.67808 16.7049 9.38612 16.3762 9.16876C16.0081 8.92776 15.5843 8.78515 15.1453 8.75451C14.7063 8.72388 14.2668 8.80624 13.8688 8.99376C13.4466 9.1958 13.0921 9.51584 12.8481 9.91516C12.6041 10.3145 12.481 10.776 12.4937 11.2438C12.4722 11.5593 12.3319 11.8549 12.101 12.071C11.8702 12.2872 11.566 12.4078 11.2498 12.4086C10.9335 12.4094 10.6288 12.2903 10.3968 12.0753C10.1649 11.8603 10.0231 11.5654 10 11.25V11.2425Z" fill="#2E1065"/>
</svg>
