<svg width="60" height="60" viewBox="0 0 60 60" fill="none" xmlns="http://www.w3.org/2000/svg">
<path d="M51.6 15.8998H47.94C47.62 15.8998 47.35 16.0098 47.13 16.2298C46.91 16.4498 46.8 16.7198 46.8 17.0398V31.7998C46.8 33.3598 46.24 34.6998 45.12 35.8198C44 36.9398 42.64 37.4998 41.04 37.4998H16.74C16.42 37.4998 16.15 37.6098 15.93 37.8298C15.71 38.0498 15.6 38.3198 15.6 38.6398V42.2998C15.6 42.9798 15.83 43.5498 16.29 44.0098C16.75 44.4698 17.32 44.6998 18 44.6998H42.9C43.9 44.6998 44.76 45.0598 45.48 45.7798L52.08 52.3798C52.24 52.5398 52.43 52.6398 52.65 52.6798C52.87 52.7198 53.09 52.6998 53.31 52.6198C53.53 52.5398 53.7 52.3998 53.82 52.1998C53.94 51.9998 54 51.7798 54 51.5398V18.2998C54 17.6198 53.77 17.0498 53.31 16.5898C52.85 16.1298 52.28 15.8998 51.6 15.8998ZM42 30.2998V8.6998C42 8.0198 41.77 7.4498 41.31 6.9898C40.85 6.5298 40.28 6.2998 39.6 6.2998H8.4C7.72 6.2998 7.15 6.5298 6.69 6.9898C6.23 7.4498 6 8.0198 6 8.6998V39.5398C6 39.7798 6.06 39.9998 6.18 40.1998C6.3 40.3998 6.47 40.5398 6.69 40.6198C6.91 40.6998 7.13 40.7198 7.35 40.6798C7.57 40.6398 7.76 40.5398 7.92 40.3798L14.52 33.7798C15.24 33.0598 16.1 32.6998 17.1 32.6998H39.6C40.28 32.6998 40.85 32.4598 41.31 31.9798C41.77 31.4998 42 30.9398 42 30.2998Z" fill="black"/>
</svg>
