<svg width="30" height="30" viewBox="0 0 30 30" fill="none" xmlns="http://www.w3.org/2000/svg">
<path d="M21.6161 17.8661C21.128 18.3543 21.128 19.1458 21.6161 19.6339C22.1042 20.122 22.8958 20.122 23.3839 19.6339L27.0251 15.9926C27.0439 15.9739 27.0621 15.9546 27.0796 15.935C27.3375 15.706 27.5 15.372 27.5 15C27.5 14.628 27.3375 14.294 27.0796 14.065C27.0621 14.0454 27.0439 14.0261 27.0251 14.0074L23.3839 10.3661C22.8958 9.87796 22.1042 9.87796 21.6161 10.3661C21.128 10.8543 21.128 11.6457 21.6161 12.1339L23.2323 13.75H16.25C15.5596 13.75 15 14.3096 15 15C15 15.6904 15.5596 16.25 16.25 16.25H23.2323L21.6161 17.8661Z" fill="#A78BFA"/>
<path d="M6.25 2.5C4.17894 2.5 2.5 4.17894 2.5 6.25V23.75C2.5 25.8211 4.17894 27.5 6.25 27.5H18.125C19.8509 27.5 21.25 26.1009 21.25 24.375V20.9157C21.0649 20.8087 20.8906 20.6761 20.7323 20.5177C19.9142 19.6997 19.7816 18.4561 20.3343 17.5H16.25C14.8693 17.5 13.75 16.3807 13.75 15C13.75 13.6193 14.8693 12.5 16.25 12.5H20.3343C19.7816 11.5439 19.9142 10.3002 20.7323 9.48224C20.8906 9.32388 21.0649 9.1912 21.25 9.08423V5.625C21.25 3.89911 19.8509 2.5 18.125 2.5H6.25Z" fill="#A78BFA"/>
</svg>
